<!-- Generated from the adjacent pinned DOT source by website/scripts/render-diagrams.mjs. -->
<svg width="1066" height="986" role="img" aria-labelledby="architecture-build-route-selection-svg-title architecture-build-route-selection-svg-description" preserveAspectRatio="xMidYMid meet"
 viewBox="0.00 0.00 1066.00 986.00" xmlns="http://www.w3.org/2000/svg">
<title id="architecture-build-route-selection-svg-title">Native and optimized build-route selection</title>
<desc id="architecture-build-route-selection-svg-description">The builder resolves the owning family, accepts a family-owned native default immediately, otherwise probes only exact family profiles and selects either one optimized adapter, the native builder, or a terminal ambiguity error.</desc>
<g id="graph0" class="graph" transform="scale(1 1) rotate(0) translate(25.2 961.2)">
<polygon fill="#fbfcfe" stroke="none" points="-25.2,25.2 -25.2,-961.2 1040.61,-961.2 1040.61,25.2 -25.2,25.2"/>
<text xml:space="preserve" text-anchor="start" x="361.46" y="-907.8" font-family="Arial" font-weight="bold" font-size="28.00" fill="#111827">Select one build route</text>
<text xml:space="preserve" text-anchor="start" x="202.67" y="-890.6" font-family="Arial" font-size="16.00" fill="#111827">Family resolution happens first; a claimed optimized build never falls back after failure.</text>
<!-- request -->
<g id="node1" class="node">
<title>request</title>
<path fill="#f5f3ff" stroke="#7c3aed" stroke-width="2" d="M781.38,-884C781.38,-884 579.58,-884 579.58,-884 573.58,-884 567.58,-878 567.58,-872 567.58,-872 567.58,-841.4 567.58,-841.4 567.58,-835.4 573.58,-829.4 579.58,-829.4 579.58,-829.4 781.38,-829.4 781.38,-829.4 787.38,-829.4 793.38,-835.4 793.38,-841.4 793.38,-841.4 793.38,-872 793.38,-872 793.38,-878 787.38,-884 781.38,-884"/>
<text xml:space="preserve" text-anchor="start" x="624.27" y="-858.9" font-family="Arial" font-weight="bold" font-size="17.00" fill="#111827">Source model</text>
<text xml:space="preserve" text-anchor="start" x="581.98" y="-842.8" font-family="Arial" font-size="16.00" fill="#111827">checkpoint config + revision</text>
</g>
<!-- family -->
<g id="node2" class="node">
<title>family</title>
<path fill="#eff6ff" stroke="#2563eb" stroke-width="2" d="M806.96,-776.4C806.96,-776.4 554,-776.4 554,-776.4 548,-776.4 542,-770.4 542,-764.4 542,-764.4 542,-733.8 542,-733.8 542,-727.8 548,-721.8 554,-721.8 554,-721.8 806.96,-721.8 806.96,-721.8 812.96,-721.8 818.96,-727.8 818.96,-733.8 818.96,-733.8 818.96,-764.4 818.96,-764.4 818.96,-770.4 812.96,-776.4 806.96,-776.4"/>
<text xml:space="preserve" text-anchor="start" x="588.85" y="-751.3" font-family="Arial" font-weight="bold" font-size="17.00" fill="#111827">Resolve owning family</text>
<text xml:space="preserve" text-anchor="start" x="556.4" y="-735.2" font-family="Arial" font-size="16.00" fill="#111827">load descriptor and route metadata</text>
</g>
<!-- request&#45;&gt;family -->
<g id="edge1" class="edge">
<title>request&#45;&gt;family</title>
<path fill="none" stroke="#64748b" stroke-width="2.4" d="M680.48,-828.51C680.48,-816.31 680.48,-801.71 680.48,-788.44"/>
<polygon fill="#64748b" stroke="#64748b" stroke-width="2.4" points="683.28,-788.83 680.48,-780.83 677.68,-788.83 683.28,-788.83"/>
</g>
<!-- native_default -->
<g id="node3" class="node">
<title>native_default</title>
<path fill="#fffbeb" stroke="#b45309" stroke-width="2" d="M668.93,-665.55C668.93,-665.55 494.11,-616.45 494.11,-616.45 488.34,-614.82 488.34,-611.58 494.11,-609.95 494.11,-609.95 668.93,-560.85 668.93,-560.85 674.71,-559.22 686.26,-559.22 692.03,-560.85 692.03,-560.85 866.85,-609.95 866.85,-609.95 872.63,-611.58 872.63,-614.82 866.85,-616.45 866.85,-616.45 692.03,-665.55 692.03,-665.55 686.26,-667.18 674.71,-667.18 668.93,-665.55"/>
<text xml:space="preserve" text-anchor="start" x="595.92" y="-615.9" font-family="Arial" font-weight="bold" font-size="17.00" fill="#111827">Native default claims</text>
<text xml:space="preserve" text-anchor="start" x="606.36" y="-598.9" font-family="Arial" font-weight="bold" font-size="17.00" fill="#111827">this ModelConfig?</text>
</g>
<!-- family&#45;&gt;native_default -->
<g id="edge2" class="edge">
<title>family&#45;&gt;native_default</title>
<path fill="none" stroke="#64748b" stroke-width="2.4" d="M680.48,-721C680.48,-709.37 680.48,-695.2 680.48,-681.04"/>
<polygon fill="#64748b" stroke="#64748b" stroke-width="2.4" points="683.28,-681.37 680.48,-673.37 677.68,-681.37 683.28,-681.37"/>
</g>
<!-- probe -->
<g id="node5" class="node">
<title>probe</title>
<path fill="#eff6ff" stroke="#2563eb" stroke-width="2" d="M652.3,-486.4C652.3,-486.4 356.67,-486.4 356.67,-486.4 350.67,-486.4 344.67,-480.4 344.67,-474.4 344.67,-474.4 344.67,-443.8 344.67,-443.8 344.67,-437.8 350.67,-431.8 356.67,-431.8 356.67,-431.8 652.3,-431.8 652.3,-431.8 658.3,-431.8 664.3,-437.8 664.3,-443.8 664.3,-443.8 664.3,-474.4 664.3,-474.4 664.3,-480.4 658.3,-486.4 652.3,-486.4"/>
<text xml:space="preserve" text-anchor="start" x="396.18" y="-461.3" font-family="Arial" font-weight="bold" font-size="17.00" fill="#111827">Probe this family&#39;s profiles</text>
<text xml:space="preserve" text-anchor="start" x="359.07" y="-445.2" font-family="Arial" font-size="16.00" fill="#111827">exact revision + target + effective options</text>
</g>
<!-- native_default&#45;&gt;probe -->
<g id="edge4" class="edge">
<title>native_default&#45;&gt;probe</title>
<path fill="none" stroke="#64748b" stroke-width="2.4" d="M631.92,-570.24C604.41,-546.46 570.41,-517.07 544.44,-494.64"/>
<polygon fill="#64748b" stroke="#64748b" stroke-width="2.4" points="546.6,-492.8 538.72,-489.69 542.94,-497.04 546.6,-492.8"/>
<text xml:space="preserve" text-anchor="middle" x="596.1" y="-517.2" font-family="Arial" font-size="16.00" fill="#334155">no</text>
</g>
<!-- native -->
<g id="node7" class="node">
<title>native</title>
<path fill="#ecfccb" stroke="#4d7c0f" stroke-width="2" d="M967.16,-350.5C967.16,-350.5 745.81,-350.5 745.81,-350.5 739.81,-350.5 733.81,-344.5 733.81,-338.5 733.81,-338.5 733.81,-307.9 733.81,-307.9 733.81,-301.9 739.81,-295.9 745.81,-295.9 745.81,-295.9 967.16,-295.9 967.16,-295.9 973.16,-295.9 979.16,-301.9 979.16,-307.9 979.16,-307.9 979.16,-338.5 979.16,-338.5 979.16,-344.5 973.16,-350.5 967.16,-350.5"/>
<text xml:space="preserve" text-anchor="start" x="775.71" y="-325.4" font-family="Arial" font-weight="bold" font-size="17.00" fill="#111827">Native FamilyPlugin</text>
<text xml:space="preserve" text-anchor="start" x="748.21" y="-309.3" font-family="Arial" font-size="16.00" fill="#111827">build TensorRT plans + assets</text>
</g>
<!-- native_default&#45;&gt;native -->
<g id="edge3" class="edge">
<title>native_default&#45;&gt;native</title>
<path fill="none" stroke="#64748b" stroke-width="2.4" d="M709.35,-564.97C744.18,-507.97 802.02,-413.32 833.82,-361.29"/>
<polygon fill="#64748b" stroke="#64748b" stroke-width="2.4" points="836.14,-362.86 837.92,-354.58 831.36,-359.94 836.14,-362.86"/>
<text xml:space="preserve" text-anchor="middle" x="802.73" y="-454.3" font-family="Arial" font-size="16.00" fill="#334155">yes</text>
</g>
<!-- probe_inputs -->
<g id="node4" class="node">
<title>probe_inputs</title>
<path fill="#f5f3ff" stroke="#7c3aed" stroke-width="2" d="M298.39,-350.5C298.39,-350.5 72.57,-350.5 72.57,-350.5 66.57,-350.5 60.57,-344.5 60.57,-338.5 60.57,-338.5 60.57,-307.9 60.57,-307.9 60.57,-301.9 66.57,-295.9 72.57,-295.9 72.57,-295.9 298.39,-295.9 298.39,-295.9 304.39,-295.9 310.39,-301.9 310.39,-307.9 310.39,-307.9 310.39,-338.5 310.39,-338.5 310.39,-344.5 304.39,-350.5 298.39,-350.5"/>
<text xml:space="preserve" text-anchor="start" x="90.57" y="-325.4" font-family="Arial" font-weight="bold" font-size="17.00" fill="#111827">Optimized probe inputs</text>
<text xml:space="preserve" text-anchor="start" x="74.97" y="-309.3" font-family="Arial" font-size="16.00" fill="#111827">target + effective public options</text>
</g>
<!-- probe_inputs&#45;&gt;probe -->
<g id="edge5" class="edge">
<title>probe_inputs&#45;&gt;probe</title>
<path fill="none" stroke="#64748b" stroke-width="2.4" d="M250.33,-351.42C302.05,-373.13 374.58,-403.57 428.93,-426.39"/>
<polygon fill="#64748b" stroke="#64748b" stroke-width="2.4" points="427.73,-428.92 436.19,-429.44 429.9,-423.76 427.73,-428.92"/>
</g>
<!-- outcome -->
<g id="node6" class="node">
<title>outcome</title>
<path fill="#fffbeb" stroke="#b45309" stroke-width="2" d="M493.16,-374.82C493.16,-374.82 357.6,-327.18 357.6,-327.18 351.94,-325.19 351.94,-321.21 357.6,-319.22 357.6,-319.22 493.16,-271.58 493.16,-271.58 498.82,-269.59 510.14,-269.59 515.8,-271.58 515.8,-271.58 651.36,-319.22 651.36,-319.22 657.02,-321.21 657.02,-325.19 651.36,-327.18 651.36,-327.18 515.8,-374.82 515.8,-374.82 510.14,-376.81 498.82,-376.81 493.16,-374.82"/>
<text xml:space="preserve" text-anchor="start" x="439.78" y="-325.9" font-family="Arial" font-weight="bold" font-size="17.00" fill="#111827">Qualified profile</text>
<text xml:space="preserve" text-anchor="start" x="464.8" y="-308.9" font-family="Arial" font-weight="bold" font-size="17.00" fill="#111827">matches?</text>
</g>
<!-- probe&#45;&gt;outcome -->
<g id="edge6" class="edge">
<title>probe&#45;&gt;outcome</title>
<path fill="none" stroke="#64748b" stroke-width="2.4" d="M504.48,-431C504.48,-419.37 504.48,-405.2 504.48,-391.04"/>
<polygon fill="#64748b" stroke="#64748b" stroke-width="2.4" points="507.28,-391.37 504.48,-383.37 501.68,-391.37 507.28,-391.37"/>
</g>
<!-- outcome&#45;&gt;native -->
<g id="edge8" class="edge">
<title>outcome&#45;&gt;native</title>
<path fill="none" stroke="#64748b" stroke-width="2.4" d="M665.54,-323.2C684.2,-323.2 703.07,-323.2 721.33,-323.2"/>
<polygon fill="#64748b" stroke="#64748b" stroke-width="2.4" points="721.28,-326 729.28,-323.2 721.28,-320.4 721.28,-326"/>
<text xml:space="preserve" text-anchor="middle" x="698.25" y="-331" font-family="Arial" font-size="16.00" fill="#334155">none</text>
</g>
<!-- optimized -->
<g id="node8" class="node">
<title>optimized</title>
<path fill="#f5f3ff" stroke="#7c3aed" stroke-width="2" d="M431.95,-196.4C431.95,-196.4 179.01,-196.4 179.01,-196.4 173.01,-196.4 167.01,-190.4 167.01,-184.4 167.01,-184.4 167.01,-153.8 167.01,-153.8 167.01,-147.8 173.01,-141.8 179.01,-141.8 179.01,-141.8 431.95,-141.8 431.95,-141.8 437.95,-141.8 443.95,-147.8 443.95,-153.8 443.95,-153.8 443.95,-184.4 443.95,-184.4 443.95,-190.4 437.95,-196.4 431.95,-196.4"/>
<text xml:space="preserve" text-anchor="start" x="198.27" y="-171.3" font-family="Arial" font-weight="bold" font-size="17.00" fill="#111827">Isolated optimized adapter</text>
<text xml:space="preserve" text-anchor="start" x="181.41" y="-155.2" font-family="Arial" font-size="16.00" fill="#111827">package exact implementation tree</text>
</g>
<!-- outcome&#45;&gt;optimized -->
<g id="edge7" class="edge">
<title>outcome&#45;&gt;optimized</title>
<path fill="none" stroke="#64748b" stroke-width="2.4" d="M454.78,-284.21C422.61,-259.63 381.09,-227.89 350,-204.13"/>
<polygon fill="#64748b" stroke="#64748b" stroke-width="2.4" points="352.06,-202.18 344.01,-199.55 348.66,-206.63 352.06,-202.18"/>
<text xml:space="preserve" text-anchor="middle" x="439.48" y="-227.2" font-family="Arial" font-size="16.00" fill="#334155">exactly one</text>
</g>
<!-- terminal -->
<g id="node11" class="node">
<title>terminal</title>
<path fill="#fef2f2" stroke="#b91c1c" stroke-width="2" d="M638.38,-70.6C638.38,-70.6 392.58,-70.6 392.58,-70.6 386.58,-70.6 380.58,-64.6 380.58,-58.6 380.58,-58.6 380.58,-12 380.58,-12 380.58,-6 386.58,0 392.58,0 392.58,0 638.38,0 638.38,0 644.38,0 650.38,-6 650.38,-12 650.38,-12 650.38,-58.6 650.38,-58.6 650.38,-64.6 644.38,-70.6 638.38,-70.6"/>
<text xml:space="preserve" text-anchor="start" x="471.55" y="-45.5" font-family="Arial" font-weight="bold" font-size="17.00" fill="#111827">Fail closed</text>
<text xml:space="preserve" text-anchor="start" x="435.02" y="-29.4" font-family="Arial" font-size="16.00" fill="#111827">multiple claims → error</text>
<text xml:space="preserve" text-anchor="start" x="394.98" y="-13.4" font-family="Arial" font-size="16.00" fill="#111827">claimed adapter failure → terminal</text>
</g>
<!-- outcome&#45;&gt;terminal -->
<g id="edge9" class="edge">
<title>outcome&#45;&gt;terminal</title>
<path fill="none" stroke="#64748b" stroke-width="2.4" d="M506.59,-267.41C508.65,-213.98 511.74,-133.57 513.68,-83.06"/>
<polygon fill="#64748b" stroke="#64748b" stroke-width="2.4" points="516.48,-83.25 513.99,-75.15 510.88,-83.03 516.48,-83.25"/>
<text xml:space="preserve" text-anchor="middle" x="538.82" y="-164.3" font-family="Arial" font-size="16.00" fill="#334155">multiple</text>
</g>
<!-- native_bundle -->
<g id="node9" class="node">
<title>native_bundle</title>
<path fill="#fffbeb" stroke="#b45309" stroke-width="2" d="M1003.41,-62.6C1003.41,-62.6 709.56,-62.6 709.56,-62.6 703.56,-62.6 697.56,-56.6 697.56,-50.6 697.56,-50.6 697.56,-20 697.56,-20 697.56,-14 703.56,-8 709.56,-8 709.56,-8 1003.41,-8 1003.41,-8 1009.41,-8 1015.41,-14 1015.41,-20 1015.41,-20 1015.41,-50.6 1015.41,-50.6 1015.41,-56.6 1009.41,-62.6 1003.41,-62.6"/>
<text xml:space="preserve" text-anchor="start" x="798.39" y="-37.5" font-family="Arial" font-weight="bold" font-size="17.00" fill="#111827">Native .bundle</text>
<text xml:space="preserve" text-anchor="start" x="711.96" y="-21.4" font-family="Arial" font-size="16.00" fill="#111827">family + task + backend + plans + assets</text>
</g>
<!-- native&#45;&gt;native_bundle -->
<g id="edge10" class="edge">
<title>native&#45;&gt;native_bundle</title>
<path fill="none" stroke="#64748b" stroke-width="2.4" d="M856.48,-295.05C856.48,-243.93 856.48,-133.29 856.48,-74.62"/>
<polygon fill="#64748b" stroke="#64748b" stroke-width="2.4" points="859.28,-74.91 856.48,-66.91 853.68,-74.91 859.28,-74.91"/>
</g>
<!-- optimized_bundle -->
<g id="node10" class="node">
<title>optimized_bundle</title>
<path fill="#fffbeb" stroke="#b45309" stroke-width="2" d="M332.96,-62.6C332.96,-62.6 12,-62.6 12,-62.6 6,-62.6 0,-56.6 0,-50.6 0,-50.6 0,-20 0,-20 0,-14 6,-8 12,-8 12,-8 332.96,-8 332.96,-8 338.96,-8 344.96,-14 344.96,-20 344.96,-20 344.96,-50.6 344.96,-50.6 344.96,-56.6 338.96,-62.6 332.96,-62.6"/>
<text xml:space="preserve" text-anchor="start" x="98.82" y="-37.5" font-family="Arial" font-weight="bold" font-size="17.00" fill="#111827">Optimized .bundle</text>
<text xml:space="preserve" text-anchor="start" x="14.4" y="-21.4" font-family="Arial" font-size="16.00" fill="#111827">descriptor + embedded implementation DSO</text>
</g>
<!-- optimized&#45;&gt;optimized_bundle -->
<g id="edge11" class="edge">
<title>optimized&#45;&gt;optimized_bundle</title>
<path fill="none" stroke="#64748b" stroke-width="2.4" d="M278.25,-141.11C257.9,-120.94 229.9,-93.2 207.82,-71.32"/>
<polygon fill="#64748b" stroke="#64748b" stroke-width="2.4" points="209.91,-69.45 202.26,-65.81 205.97,-73.43 209.91,-69.45"/>
</g>
<!-- optimized&#45;&gt;terminal -->
<g id="edge12" class="edge">
<title>optimized&#45;&gt;terminal</title>
<path fill="none" stroke="#64748b" stroke-width="2.4" stroke-dasharray="5,2" d="M343.64,-140.86C371.95,-120.66 405.65,-96.6 405.65,-96.6 405.65,-96.6 421.6,-87.85 441.34,-77.01"/>
<polygon fill="#64748b" stroke="#64748b" stroke-width="2.4" points="442.43,-79.6 448.09,-73.3 439.73,-74.7 442.43,-79.6"/>
<text xml:space="preserve" text-anchor="middle" x="446.57" y="-101.4" font-family="Arial" font-size="16.00" fill="#334155">build failure</text>
</g>
</g>
</svg>
