<!-- Generated from the adjacent pinned DOT source by website/scripts/render-diagrams.mjs. -->
<svg width="1036" height="147" role="img" aria-labelledby="tutorials-intermediate-text-to-audio-pipeline-svg-title tutorials-intermediate-text-to-audio-pipeline-svg-description" preserveAspectRatio="xMidYMid meet"
 viewBox="0.00 0.00 1036.00 147.00" xmlns="http://www.w3.org/2000/svg">
<title id="tutorials-intermediate-text-to-audio-pipeline-svg-title">Text-to-audio inference pipeline</title>
<desc id="tutorials-intermediate-text-to-audio-pipeline-svg-description">A text prompt becomes text or phoneme tokens, passes through the acoustic or token model and codec or vocoder, and returns PCM samples as a WAV file or streaming callback.</desc>
<g id="graph0" class="graph" transform="scale(1 1) rotate(0) translate(21.6 125.76)">
<polygon fill="#fbfcfe" stroke="none" points="-21.6,21.6 -21.6,-125.76 1014.37,-125.76 1014.37,21.6 -21.6,21.6"/>
<text xml:space="preserve" text-anchor="start" x="342.67" y="-76.86" font-family="Arial" font-weight="bold" font-size="27.00" fill="#111827">Text input, audio output</text>
<text xml:space="preserve" text-anchor="start" x="229.16" y="-59.76" font-family="Arial" font-size="16.00" fill="#111827">Task&#45;specific stages turn language into PCM samples or streaming chunks.</text>
<!-- prompt -->
<g id="node1" class="node">
<title>prompt</title>
<path fill="#eff6ff" stroke="#2563eb" stroke-width="1.8" d="M112.14,-46.86C112.14,-46.86 12,-46.86 12,-46.86 6,-46.86 0,-40.86 0,-34.86 0,-34.86 0,-18.3 0,-18.3 0,-12.3 6,-6.3 12,-6.3 12,-6.3 112.14,-6.3 112.14,-6.3 118.14,-6.3 124.14,-12.3 124.14,-18.3 124.14,-18.3 124.14,-34.86 124.14,-34.86 124.14,-40.86 118.14,-46.86 112.14,-46.86"/>
<text xml:space="preserve" text-anchor="start" x="12.96" y="-22.48" font-family="Arial" font-weight="bold" font-size="17.00" fill="#111827">Text prompt</text>
</g>
<!-- tokens -->
<g id="node2" class="node">
<title>tokens</title>
<path fill="#ffffff" stroke="#64748b" stroke-width="1.8" d="M308.03,-53.16C308.03,-53.16 169.14,-53.16 169.14,-53.16 163.14,-53.16 157.14,-47.16 157.14,-41.16 157.14,-41.16 157.14,-12 157.14,-12 157.14,-6 163.14,0 169.14,0 169.14,0 308.03,0 308.03,0 314.03,0 320.03,-6 320.03,-12 320.03,-12 320.03,-41.16 320.03,-41.16 320.03,-47.16 314.03,-53.16 308.03,-53.16"/>
<text xml:space="preserve" text-anchor="start" x="170.1" y="-28.78" font-family="Arial" font-weight="bold" font-size="17.00" fill="#111827">Text or phoneme</text>
<text xml:space="preserve" text-anchor="start" x="215.01" y="-12.68" font-family="Arial" font-size="16.00" fill="#111827">tokens</text>
</g>
<!-- prompt&#45;&gt;tokens -->
<g id="edge1" class="edge">
<title>prompt&#45;&gt;tokens</title>
<path fill="none" stroke="#64748b" stroke-width="2.2" d="M124.8,-26.58C124.8,-26.58 144.97,-26.58 144.97,-26.58"/>
<polygon fill="#64748b" stroke="#64748b" stroke-width="2.2" points="144.97,-29.38 152.97,-26.58 144.97,-23.78 144.97,-29.38"/>
</g>
<!-- acoustic -->
<g id="node3" class="node">
<title>acoustic</title>
<path fill="#ecfccb" stroke="#4d7c0f" stroke-width="1.8" d="M460.46,-53.16C460.46,-53.16 365.03,-53.16 365.03,-53.16 359.03,-53.16 353.03,-47.16 353.03,-41.16 353.03,-41.16 353.03,-12 353.03,-12 353.03,-6 359.03,0 365.03,0 365.03,0 460.46,0 460.46,0 466.46,0 472.46,-6 472.46,-12 472.46,-12 472.46,-41.16 472.46,-41.16 472.46,-47.16 466.46,-53.16 460.46,-53.16"/>
<text xml:space="preserve" text-anchor="start" x="365.99" y="-28.78" font-family="Arial" font-weight="bold" font-size="17.00" fill="#111827">Acoustic or</text>
<text xml:space="preserve" text-anchor="start" x="369.16" y="-12.68" font-family="Arial" font-size="16.00" fill="#111827">token model</text>
</g>
<!-- tokens&#45;&gt;acoustic -->
<g id="edge2" class="edge">
<title>tokens&#45;&gt;acoustic</title>
<path fill="none" stroke="#64748b" stroke-width="2.2" d="M320.82,-26.58C320.82,-26.58 340.86,-26.58 340.86,-26.58"/>
<polygon fill="#64748b" stroke="#64748b" stroke-width="2.2" points="340.86,-29.38 348.86,-26.58 340.86,-23.78 340.86,-29.38"/>
</g>
<!-- codec -->
<g id="node4" class="node">
<title>codec</title>
<path fill="#ecfccb" stroke="#4d7c0f" stroke-width="1.8" d="M619.89,-53.16C619.89,-53.16 517.46,-53.16 517.46,-53.16 511.46,-53.16 505.46,-47.16 505.46,-41.16 505.46,-41.16 505.46,-12 505.46,-12 505.46,-6 511.46,0 517.46,0 517.46,0 619.89,0 619.89,0 625.89,0 631.89,-6 631.89,-12 631.89,-12 631.89,-41.16 631.89,-41.16 631.89,-47.16 625.89,-53.16 619.89,-53.16"/>
<text xml:space="preserve" text-anchor="start" x="531.84" y="-28.78" font-family="Arial" font-weight="bold" font-size="17.00" fill="#111827">Codec or</text>
<text xml:space="preserve" text-anchor="start" x="518.42" y="-12.68" font-family="Arial" font-size="16.00" fill="#111827">vocoder stage</text>
</g>
<!-- acoustic&#45;&gt;codec -->
<g id="edge3" class="edge">
<title>acoustic&#45;&gt;codec</title>
<path fill="none" stroke="#64748b" stroke-width="2.2" d="M473.03,-26.58C473.03,-26.58 493.35,-26.58 493.35,-26.58"/>
<polygon fill="#64748b" stroke="#64748b" stroke-width="2.2" points="493.35,-29.38 501.35,-26.58 493.35,-23.78 493.35,-29.38"/>
</g>
<!-- pcm -->
<g id="node5" class="node">
<title>pcm</title>
<path fill="#ffffff" stroke="#64748b" stroke-width="1.8" d="M789.35,-46.86C789.35,-46.86 676.89,-46.86 676.89,-46.86 670.89,-46.86 664.89,-40.86 664.89,-34.86 664.89,-34.86 664.89,-18.3 664.89,-18.3 664.89,-12.3 670.89,-6.3 676.89,-6.3 676.89,-6.3 789.35,-6.3 789.35,-6.3 795.35,-6.3 801.35,-12.3 801.35,-18.3 801.35,-18.3 801.35,-34.86 801.35,-34.86 801.35,-40.86 795.35,-46.86 789.35,-46.86"/>
<text xml:space="preserve" text-anchor="start" x="677.85" y="-22.48" font-family="Arial" font-weight="bold" font-size="17.00" fill="#111827">PCM samples</text>
</g>
<!-- codec&#45;&gt;pcm -->
<g id="edge4" class="edge">
<title>codec&#45;&gt;pcm</title>
<path fill="none" stroke="#64748b" stroke-width="2.2" d="M632.73,-26.58C632.73,-26.58 652.75,-26.58 652.75,-26.58"/>
<polygon fill="#64748b" stroke="#64748b" stroke-width="2.2" points="652.75,-29.38 660.75,-26.58 652.75,-23.78 652.75,-29.38"/>
</g>
<!-- output -->
<g id="node6" class="node">
<title>output</title>
<path fill="#f5f3ff" stroke="#7c3aed" stroke-width="1.8" d="M980.77,-53.16C980.77,-53.16 846.35,-53.16 846.35,-53.16 840.35,-53.16 834.35,-47.16 834.35,-41.16 834.35,-41.16 834.35,-12 834.35,-12 834.35,-6 840.35,0 846.35,0 846.35,0 980.77,0 980.77,0 986.77,0 992.77,-6 992.77,-12 992.77,-12 992.77,-41.16 992.77,-41.16 992.77,-47.16 986.77,-53.16 980.77,-53.16"/>
<text xml:space="preserve" text-anchor="start" x="868.23" y="-28.78" font-family="Arial" font-weight="bold" font-size="17.00" fill="#111827">WAV file or</text>
<text xml:space="preserve" text-anchor="start" x="847.31" y="-12.68" font-family="Arial" font-size="16.00" fill="#111827">streaming callback</text>
</g>
<!-- pcm&#45;&gt;output -->
<g id="edge5" class="edge">
<title>pcm&#45;&gt;output</title>
<path fill="none" stroke="#64748b" stroke-width="2.2" d="M802.11,-26.58C802.11,-26.58 822.42,-26.58 822.42,-26.58"/>
<polygon fill="#64748b" stroke="#64748b" stroke-width="2.2" points="822.42,-29.38 830.42,-26.58 822.42,-23.78 822.42,-29.38"/>
</g>
</g>
</svg>
