<!-- Generated from the adjacent pinned DOT source by website/scripts/render-diagrams.mjs. -->
<svg width="1028" height="288" role="img" aria-labelledby="trtmc-extension-decision-svg-title trtmc-extension-decision-svg-description" preserveAspectRatio="xMidYMid meet"
 viewBox="0.00 0.00 1028.00 288.00" xmlns="http://www.w3.org/2000/svg">
<title id="trtmc-extension-decision-svg-title">TensorRT-Model-Connect extension ownership paths</title>
<desc id="trtmc-extension-decision-svg-description">A change stays in one family or application unless a current model-independent backend or public interface requirement proves a shared boundary.</desc>
<g id="graph0" class="graph" transform="scale(1 1) rotate(0) translate(25.2 263.08)">
<polygon fill="#fbfcfe" stroke="none" points="-25.2,25.2 -25.2,-263.08 1002.54,-263.08 1002.54,25.2 -25.2,25.2"/>
<text xml:space="preserve" text-anchor="start" x="282.8" y="-207.88" font-family="Arial" font-weight="bold" font-size="30.00" fill="#111827">Choose the narrowest owner</text>
<text xml:space="preserve" text-anchor="start" x="207.56" y="-189.58" font-family="Arial" font-size="17.00" fill="#111827">This is a decision flow; normal model contributions change one family only.</text>
<!-- start -->
<g id="node1" class="node">
<title>start</title>
<path fill="#eff6ff" stroke="#2563eb" stroke-width="2.2" d="M620.36,-182.88C620.36,-182.88 402.52,-182.88 402.52,-182.88 396.52,-182.88 390.52,-176.88 390.52,-170.88 390.52,-170.88 390.52,-150.24 390.52,-150.24 390.52,-144.24 396.52,-138.24 402.52,-138.24 402.52,-138.24 620.36,-138.24 620.36,-138.24 626.36,-138.24 632.36,-144.24 632.36,-150.24 632.36,-150.24 632.36,-170.88 632.36,-170.88 632.36,-176.88 626.36,-182.88 620.36,-182.88"/>
<text xml:space="preserve" text-anchor="start" x="404.92" y="-156.16" font-family="Arial" font-weight="bold" font-size="18.00" fill="#111827">What behavior changes?</text>
</g>
<!-- family -->
<g id="node2" class="node">
<title>family</title>
<path fill="#ecfccb" stroke="#4d7c0f" stroke-width="2.2" d="M232.88,-73.04C232.88,-73.04 12,-73.04 12,-73.04 6,-73.04 0,-67.04 0,-61.04 0,-61.04 0,-12 0,-12 0,-6 6,0 12,0 12,0 232.88,0 232.88,0 238.88,0 244.88,-6 244.88,-12 244.88,-12 244.88,-61.04 244.88,-61.04 244.88,-67.04 238.88,-73.04 232.88,-73.04"/>
<text xml:space="preserve" text-anchor="start" x="14.4" y="-46.32" font-family="Arial" font-weight="bold" font-size="18.00" fill="#111827">One model family</text>
<text xml:space="preserve" text-anchor="start" x="14.4" y="-30.12" font-family="Arial" font-size="16.00" fill="#111827">support.py · model.py</text>
<text xml:space="preserve" text-anchor="start" x="14.4" y="-14.12" font-family="Arial" font-size="16.00" fill="#111827">runtime · tests · requirements</text>
</g>
<!-- start&#45;&gt;family -->
<g id="edge1" class="edge">
<title>start&#45;&gt;family</title>
<path fill="none" stroke="#64748b" stroke-width="2.5" d="M415.81,-137.14C368.92,-126.15 322.39,-115.24 322.39,-115.24 322.39,-115.24 275.74,-97.11 227.51,-78.36"/>
<polygon fill="#64748b" stroke="#64748b" stroke-width="2.5" points="228.56,-75.76 220.09,-75.48 226.53,-80.98 228.56,-75.76"/>
<text xml:space="preserve" text-anchor="middle" x="382.42" y="-100.84" font-family="Arial" font-size="16.00" fill="#334155">model semantics</text>
</g>
<!-- app -->
<g id="node3" class="node">
<title>app</title>
<path fill="#fffbeb" stroke="#b45309" stroke-width="2.2" d="M488.86,-73.04C488.86,-73.04 286.02,-73.04 286.02,-73.04 280.02,-73.04 274.02,-67.04 274.02,-61.04 274.02,-61.04 274.02,-12 274.02,-12 274.02,-6 280.02,0 286.02,0 286.02,0 488.86,0 488.86,0 494.86,0 500.86,-6 500.86,-12 500.86,-12 500.86,-61.04 500.86,-61.04 500.86,-67.04 494.86,-73.04 488.86,-73.04"/>
<text xml:space="preserve" text-anchor="start" x="288.42" y="-46.32" font-family="Arial" font-weight="bold" font-size="18.00" fill="#111827">Application or example</text>
<text xml:space="preserve" text-anchor="start" x="288.42" y="-30.12" font-family="Arial" font-size="16.00" fill="#111827">apps/ or examples/</text>
<text xml:space="preserve" text-anchor="start" x="330.52" y="-14.12" font-family="Arial" font-size="16.00" fill="#111827">public APIs only</text>
</g>
<!-- start&#45;&gt;app -->
<g id="edge2" class="edge">
<title>start&#45;&gt;app</title>
<path fill="none" stroke="#64748b" stroke-width="2.5" d="M488.7,-137.18C473.1,-121.83 451.89,-100.95 432.9,-82.26"/>
<polygon fill="#64748b" stroke="#64748b" stroke-width="2.5" points="435.01,-80.41 427.34,-76.79 431.08,-84.4 435.01,-80.41"/>
<text xml:space="preserve" text-anchor="middle" x="513.09" y="-100.84" font-family="Arial" font-size="16.00" fill="#334155">user workflow</text>
</g>
<!-- backend -->
<g id="node4" class="node">
<title>backend</title>
<path fill="#eff6ff" stroke="#2563eb" stroke-width="2.2" d="M730.86,-73.04C730.86,-73.04 542.02,-73.04 542.02,-73.04 536.02,-73.04 530.02,-67.04 530.02,-61.04 530.02,-61.04 530.02,-12 530.02,-12 530.02,-6 536.02,0 542.02,0 542.02,0 730.86,0 730.86,0 736.86,0 742.86,-6 742.86,-12 742.86,-12 742.86,-61.04 742.86,-61.04 742.86,-67.04 736.86,-73.04 730.86,-73.04"/>
<text xml:space="preserve" text-anchor="start" x="544.42" y="-46.32" font-family="Arial" font-weight="bold" font-size="18.00" fill="#111827">Engine&#45;wide backend</text>
<text xml:space="preserve" text-anchor="start" x="544.42" y="-30.12" font-family="Arial" font-size="16.00" fill="#111827">implements Engine API</text>
<text xml:space="preserve" text-anchor="start" x="563.06" y="-14.12" font-family="Arial" font-size="16.00" fill="#111827">no model knowledge</text>
</g>
<!-- start&#45;&gt;backend -->
<g id="edge3" class="edge">
<title>start&#45;&gt;backend</title>
<path fill="none" stroke="#64748b" stroke-width="2.5" d="M540.78,-137.14C555.16,-126.15 569.44,-115.24 569.44,-115.24 569.44,-115.24 582.79,-99.75 597.58,-82.6"/>
<polygon fill="#64748b" stroke="#64748b" stroke-width="2.5" points="599.33,-84.86 602.43,-76.97 595.09,-81.2 599.33,-84.86"/>
<text xml:space="preserve" text-anchor="middle" x="642.56" y="-100.84" font-family="Arial" font-size="16.00" fill="#334155">engine behavior</text>
</g>
<!-- shared -->
<g id="node5" class="node">
<title>shared</title>
<path fill="#f5f3ff" stroke="#7c3aed" stroke-width="2.2" d="M965.34,-73.04C965.34,-73.04 783.54,-73.04 783.54,-73.04 777.54,-73.04 771.54,-67.04 771.54,-61.04 771.54,-61.04 771.54,-12 771.54,-12 771.54,-6 777.54,0 783.54,0 783.54,0 965.34,0 965.34,0 971.34,0 977.34,-6 977.34,-12 977.34,-12 977.34,-61.04 977.34,-61.04 977.34,-67.04 971.34,-73.04 965.34,-73.04"/>
<text xml:space="preserve" text-anchor="start" x="785.94" y="-46.32" font-family="Arial" font-weight="bold" font-size="18.00" fill="#111827">Public contract</text>
<text xml:space="preserve" text-anchor="start" x="785.94" y="-30.12" font-family="Arial" font-size="16.00" fill="#111827">current shared need only</text>
<text xml:space="preserve" text-anchor="start" x="801.07" y="-14.12" font-family="Arial" font-size="16.00" fill="#111827">small typed interface</text>
</g>
<!-- start&#45;&gt;shared -->
<g id="edge4" class="edge">
<title>start&#45;&gt;shared</title>
<path fill="none" stroke="#64748b" stroke-width="2.5" d="M610.08,-137.14C658.45,-126.15 706.44,-115.24 706.44,-115.24 706.44,-115.24 744.81,-97.49 784.88,-78.95"/>
<polygon fill="#64748b" stroke="#64748b" stroke-width="2.5" points="785.84,-81.59 791.92,-75.69 783.49,-76.51 785.84,-81.59"/>
<text xml:space="preserve" text-anchor="middle" x="786.62" y="-100.84" font-family="Arial" font-size="16.00" fill="#334155">shared API</text>
</g>
</g>
</svg>
