<!-- Generated from the adjacent pinned DOT source by website/scripts/render-diagrams.mjs. -->
<svg width="623" height="662" role="img" aria-labelledby="tutorials-advanced-dynamic-kv-cache-svg-title tutorials-advanced-dynamic-kv-cache-svg-description" preserveAspectRatio="xMidYMid meet"
 viewBox="0.00 0.00 623.00 662.00" xmlns="http://www.w3.org/2000/svg">
<title id="tutorials-advanced-dynamic-kv-cache-svg-title">Dynamic KV-cache profile selection</title>
<desc id="tutorials-advanced-dynamic-kv-cache-svg-description">The model plugin combines compiled decoder profiles with the session cache budget to size state and admit decoder contexts; during generation the pipeline reads preferred cache rows from state and selects a matching TensorRT module.</desc>
<g id="graph0" class="graph" transform="scale(1 1) rotate(0) translate(25.2 637.2)">
<polygon fill="#fbfcfe" stroke="none" points="-25.2,25.2 -25.2,-637.2 597.95,-637.2 597.95,25.2 -25.2,25.2"/>
<text xml:space="preserve" text-anchor="start" x="95.74" y="-583.8" font-family="Arial" font-weight="bold" font-size="28.00" fill="#111827">Dynamic KV&#45;cache selection</text>
<text xml:space="preserve" text-anchor="start" x="8" y="-566.6" font-family="Arial" font-size="16.00" fill="#111827">The bundle defines compiled choices; the session supplies its memory budget.</text>
<!-- bundle -->
<g id="node1" class="node">
<title>bundle</title>
<path fill="#fffbeb" stroke="#b45309" stroke-width="2" d="M244.39,-560C244.39,-560 69.74,-560 69.74,-560 63.74,-560 57.74,-554 57.74,-548 57.74,-548 57.74,-517.4 57.74,-517.4 57.74,-511.4 63.74,-505.4 69.74,-505.4 69.74,-505.4 244.39,-505.4 244.39,-505.4 250.39,-505.4 256.39,-511.4 256.39,-517.4 256.39,-517.4 256.39,-548 256.39,-548 256.39,-554 250.39,-560 244.39,-560"/>
<text xml:space="preserve" text-anchor="start" x="95.2" y="-534.9" font-family="Arial" font-weight="bold" font-size="17.00" fill="#111827">Bundle profiles</text>
<text xml:space="preserve" text-anchor="start" x="72.14" y="-518.8" font-family="Arial" font-size="16.00" fill="#111827">compiled row capacities</text>
</g>
<!-- plugin -->
<g id="node3" class="node">
<title>plugin</title>
<path fill="#ecfccb" stroke="#4d7c0f" stroke-width="2" d="M444.87,-456.4C444.87,-456.4 109.26,-456.4 109.26,-456.4 103.26,-456.4 97.26,-450.4 97.26,-444.4 97.26,-444.4 97.26,-413.8 97.26,-413.8 97.26,-407.8 103.26,-401.8 109.26,-401.8 109.26,-401.8 444.87,-401.8 444.87,-401.8 450.87,-401.8 456.87,-407.8 456.87,-413.8 456.87,-413.8 456.87,-444.4 456.87,-444.4 456.87,-450.4 450.87,-456.4 444.87,-456.4"/>
<text xml:space="preserve" text-anchor="start" x="142.93" y="-431.3" font-family="Arial" font-weight="bold" font-size="17.00" fill="#111827">Model plugin creates the pipeline</text>
<text xml:space="preserve" text-anchor="start" x="111.66" y="-415.2" font-family="Arial" font-size="16.00" fill="#111827">resolve runtime rows · admit decoder contexts</text>
</g>
<!-- bundle&#45;&gt;plugin -->
<g id="edge1" class="edge">
<title>bundle&#45;&gt;plugin</title>
<path fill="none" stroke="#64748b" stroke-width="2.4" d="M189.22,-504.47C203.73,-492.19 221.03,-477.54 236.43,-464.51"/>
<polygon fill="#64748b" stroke="#64748b" stroke-width="2.4" points="238.17,-466.7 242.46,-459.4 234.55,-462.43 238.17,-466.7"/>
</g>
<!-- budget -->
<g id="node2" class="node">
<title>budget</title>
<path fill="#f5f3ff" stroke="#7c3aed" stroke-width="2" d="M489.21,-560C489.21,-560 304.92,-560 304.92,-560 298.92,-560 292.92,-554 292.92,-548 292.92,-548 292.92,-517.4 292.92,-517.4 292.92,-511.4 298.92,-505.4 304.92,-505.4 304.92,-505.4 489.21,-505.4 489.21,-505.4 495.21,-505.4 501.21,-511.4 501.21,-517.4 501.21,-517.4 501.21,-548 501.21,-548 501.21,-554 495.21,-560 489.21,-560"/>
<text xml:space="preserve" text-anchor="start" x="307.32" y="-534.9" font-family="Arial" font-weight="bold" font-size="17.00" fill="#111827">Session cache budget</text>
<text xml:space="preserve" text-anchor="start" x="342.83" y="-518.8" font-family="Arial" font-size="16.00" fill="#111827">&#45;&#45;kv&#45;cache&#45;size</text>
</g>
<!-- budget&#45;&gt;plugin -->
<g id="edge2" class="edge">
<title>budget&#45;&gt;plugin</title>
<path fill="none" stroke="#64748b" stroke-width="2.4" d="M364.91,-504.47C350.4,-492.19 333.1,-477.54 317.7,-464.51"/>
<polygon fill="#64748b" stroke="#64748b" stroke-width="2.4" points="319.58,-462.43 311.67,-459.4 315.96,-466.7 319.58,-462.43"/>
</g>
<!-- contexts -->
<g id="node4" class="node">
<title>contexts</title>
<path fill="#eff6ff" stroke="#2563eb" stroke-width="2" d="M238.04,-352.8C238.04,-352.8 14.09,-352.8 14.09,-352.8 8.09,-352.8 2.09,-346.8 2.09,-340.8 2.09,-340.8 2.09,-310.2 2.09,-310.2 2.09,-304.2 8.09,-298.2 14.09,-298.2 14.09,-298.2 238.04,-298.2 238.04,-298.2 244.04,-298.2 250.04,-304.2 250.04,-310.2 250.04,-310.2 250.04,-340.8 250.04,-340.8 250.04,-346.8 244.04,-352.8 238.04,-352.8"/>
<text xml:space="preserve" text-anchor="start" x="16.49" y="-327.7" font-family="Arial" font-weight="bold" font-size="17.00" fill="#111827">Admitted decoder contexts</text>
<text xml:space="preserve" text-anchor="start" x="22.02" y="-311.6" font-family="Arial" font-size="16.00" fill="#111827">fixed compiled row capacities</text>
</g>
<!-- plugin&#45;&gt;contexts -->
<g id="edge3" class="edge">
<title>plugin&#45;&gt;contexts</title>
<path fill="none" stroke="#64748b" stroke-width="2.4" d="M236.6,-400.87C217.91,-388.3 195.53,-373.24 175.82,-359.98"/>
<polygon fill="#64748b" stroke="#64748b" stroke-width="2.4" points="177.59,-357.8 169.39,-355.65 174.47,-362.44 177.59,-357.8"/>
</g>
<!-- state -->
<g id="node5" class="node">
<title>state</title>
<path fill="#ecfccb" stroke="#4d7c0f" stroke-width="2" d="M558.66,-352.8C558.66,-352.8 299.47,-352.8 299.47,-352.8 293.47,-352.8 287.47,-346.8 287.47,-340.8 287.47,-340.8 287.47,-310.2 287.47,-310.2 287.47,-304.2 293.47,-298.2 299.47,-298.2 299.47,-298.2 558.66,-298.2 558.66,-298.2 564.66,-298.2 570.66,-304.2 570.66,-310.2 570.66,-310.2 570.66,-340.8 570.66,-340.8 570.66,-346.8 564.66,-352.8 558.66,-352.8"/>
<text xml:space="preserve" text-anchor="start" x="312.41" y="-327.7" font-family="Arial" font-weight="bold" font-size="17.00" fill="#111827">Model&#45;owned inference state</text>
<text xml:space="preserve" text-anchor="start" x="301.87" y="-311.6" font-family="Arial" font-size="16.00" fill="#111827">allocated within the resolved budget</text>
</g>
<!-- plugin&#45;&gt;state -->
<g id="edge4" class="edge">
<title>plugin&#45;&gt;state</title>
<path fill="none" stroke="#64748b" stroke-width="2.4" d="M317.8,-400.87C336.62,-388.3 359.14,-373.24 378.98,-359.98"/>
<polygon fill="#64748b" stroke="#64748b" stroke-width="2.4" points="380.37,-362.42 385.46,-355.64 377.26,-357.76 380.37,-362.42"/>
</g>
<!-- pipeline -->
<g id="node7" class="node">
<title>pipeline</title>
<path fill="#f5f3ff" stroke="#7c3aed" stroke-width="2" d="M394.2,-158.2C394.2,-158.2 159.93,-158.2 159.93,-158.2 153.93,-158.2 147.93,-152.2 147.93,-146.2 147.93,-146.2 147.93,-115.6 147.93,-115.6 147.93,-109.6 153.93,-103.6 159.93,-103.6 159.93,-103.6 394.2,-103.6 394.2,-103.6 400.2,-103.6 406.2,-109.6 406.2,-115.6 406.2,-115.6 406.2,-146.2 406.2,-146.2 406.2,-152.2 400.2,-158.2 394.2,-158.2"/>
<text xml:space="preserve" text-anchor="start" x="178.83" y="-133.1" font-family="Arial" font-weight="bold" font-size="17.00" fill="#111827">Text&#45;generation pipeline</text>
<text xml:space="preserve" text-anchor="start" x="162.33" y="-117" font-family="Arial" font-size="16.00" fill="#111827">select matching decoder context</text>
</g>
<!-- contexts&#45;&gt;pipeline -->
<g id="edge7" class="edge">
<title>contexts&#45;&gt;pipeline</title>
<path fill="none" stroke="#64748b" stroke-width="2.4" d="M147.38,-297.31C173.91,-263.47 219.31,-205.57 248.74,-168.03"/>
<polygon fill="#64748b" stroke="#64748b" stroke-width="2.4" points="250.88,-169.83 253.62,-161.81 246.48,-166.37 250.88,-169.83"/>
</g>
<!-- rows -->
<g id="node6" class="node">
<title>rows</title>
<path fill="#ecfeff" stroke="#0e7490" stroke-width="2" d="M486.18,-249.2C486.18,-249.2 299.95,-249.2 299.95,-249.2 293.95,-249.2 287.95,-243.2 287.95,-237.2 287.95,-237.2 287.95,-219.2 287.95,-219.2 287.95,-213.2 293.95,-207.2 299.95,-207.2 299.95,-207.2 486.18,-207.2 486.18,-207.2 492.18,-207.2 498.18,-213.2 498.18,-219.2 498.18,-219.2 498.18,-237.2 498.18,-237.2 498.18,-243.2 492.18,-249.2 486.18,-249.2"/>
<text xml:space="preserve" text-anchor="start" x="302.35" y="-224.1" font-family="Arial" font-weight="bold" font-size="17.00" fill="#111827">preferred_cache_rows</text>
</g>
<!-- state&#45;&gt;rows -->
<g id="edge5" class="edge">
<title>state&#45;&gt;rows</title>
<path fill="none" stroke="#64748b" stroke-width="2.4" d="M418.84,-297.45C414.53,-286.02 409.47,-272.64 404.99,-260.76"/>
<polygon fill="#64748b" stroke="#64748b" stroke-width="2.4" points="407.64,-259.85 402.19,-253.35 402.4,-261.83 407.64,-259.85"/>
</g>
<!-- rows&#45;&gt;pipeline -->
<g id="edge6" class="edge">
<title>rows&#45;&gt;pipeline</title>
<path fill="none" stroke="#64748b" stroke-width="2.4" d="M367.61,-206.29C353.31,-194.54 335.12,-179.6 318.8,-166.19"/>
<polygon fill="#64748b" stroke="#64748b" stroke-width="2.4" points="320.73,-164.15 312.77,-161.23 317.17,-168.48 320.73,-164.15"/>
</g>
<!-- module -->
<g id="node8" class="node">
<title>module</title>
<path fill="#eff6ff" stroke="#2563eb" stroke-width="2" d="M416,-54.6C416,-54.6 138.13,-54.6 138.13,-54.6 132.13,-54.6 126.13,-48.6 126.13,-42.6 126.13,-42.6 126.13,-12 126.13,-12 126.13,-6 132.13,0 138.13,0 138.13,0 416,0 416,0 422,0 428,-6 428,-12 428,-12 428,-42.6 428,-42.6 428,-48.6 422,-54.6 416,-54.6"/>
<text xml:space="preserve" text-anchor="start" x="196.3" y="-29.5" font-family="Arial" font-weight="bold" font-size="17.00" fill="#111827">Selected ITrtModule</text>
<text xml:space="preserve" text-anchor="start" x="140.53" y="-13.4" font-family="Arial" font-size="16.00" fill="#111827">one fixed profile and execution context</text>
</g>
<!-- pipeline&#45;&gt;module -->
<g id="edge8" class="edge">
<title>pipeline&#45;&gt;module</title>
<path fill="none" stroke="#64748b" stroke-width="2.4" d="M277.06,-102.67C277.06,-91.65 277.06,-78.73 277.06,-66.77"/>
<polygon fill="#64748b" stroke="#64748b" stroke-width="2.4" points="279.86,-66.88 277.06,-58.88 274.26,-66.88 279.86,-66.88"/>
</g>
</g>
</svg>
